<svg width="643" height="164" viewBox="0 0 643 164" fill="none" xmlns="http://www.w3.org/2000/svg">
<path fill-rule="evenodd" clip-rule="evenodd" d="M124.241 0C147.815 0 163.106 15.2912 163.106 38.8651V124.241C163.106 147.815 147.815 163.106 124.241 163.106H38.8651C15.2912 163.106 0 147.815 0 124.241V38.8651C0 15.2912 15.2912 0 38.8651 0H124.241Z" fill="#081245"/>
<path d="M13.4946 50.6239V48.5302C13.4946 34.2549 23.9155 21.1216 40.6996 21.1216H54.256C71.04 21.1216 81.5531 34.2549 81.5531 48.5302V50.6239C81.5531 64.8993 71.04 78.0326 54.256 78.0326H40.6996C23.9155 78.0326 13.4946 64.8993 13.4946 50.6239ZM62.3713 51.0046V48.2447C62.3713 41.8684 57.207 36.7293 49.9216 36.7293H45.0339C37.7485 36.7293 32.6764 41.8684 32.6764 48.2447V51.0046C32.6764 57.2858 37.7485 62.4249 45.0339 62.4249H49.9216C57.207 62.4249 62.3713 57.2858 62.3713 51.0046Z" fill="#2BDE73"/>
<path d="M96.6291 90.9402H139.985C145.323 90.9402 147.196 95.1918 147.196 98.7041C147.196 102.216 145.229 106.376 139.985 106.376H103.184C101.218 106.376 100.562 106.93 100.562 108.871V126.894C100.562 128.835 101.218 129.482 103.184 129.482H140.547C145.791 129.482 147.851 133.734 147.851 137.154C147.851 140.666 145.697 144.918 140.547 144.918H96.6291C85.392 144.918 81.5527 140.943 81.5527 130.222V105.544C81.5527 94.9146 85.392 90.9402 96.6291 90.9402Z" fill="#2BDE73"/>
<path d="M135.707 57.6463H124.082V52.8822C124.082 48.5151 124.772 45.8495 127.995 43.9779C130.528 42.5033 132.6 41.3123 133.808 40.2347C135.65 38.5899 136.11 37.3422 136.11 35.4139C136.11 32.805 133.981 31.1602 131.391 31.1602C128.744 31.1602 126.384 32.4647 125.693 34.79C124.887 37.5123 122.47 39.0437 119.305 38.8168C116.657 38.6466 114.298 36.8885 114.413 33.3721C114.643 26.4528 122.182 21.1216 131.391 21.1216C140.945 21.1216 147.851 25.7155 147.851 35.4139C147.851 39.2138 146.988 41.9361 144.916 44.3182C143.189 46.3032 140.427 48.2883 137.607 50.1032C135.995 51.1808 135.707 52.3151 135.707 53.7897V57.6463ZM123.736 66.4372C123.736 62.9208 126.039 60.7089 129.895 60.7089C133.751 60.7089 136.053 62.9776 136.053 66.4372C136.053 69.8968 133.751 72.1655 129.895 72.1655C126.039 72.1655 123.736 69.9536 123.736 66.4372Z" fill="#2BDE73"/>
<path d="M35.3798 130.399H23.7541V125.634C23.7541 121.267 24.4447 118.602 27.6677 116.73C30.2 115.255 32.272 114.064 33.4806 112.987C35.3223 111.342 35.7827 110.094 35.7827 108.166C35.7827 105.557 33.6532 103.912 31.0633 103.912C28.4159 103.912 26.0562 105.217 25.3656 107.542C24.5598 110.265 22.1426 111.796 18.9771 111.569C16.3297 111.399 13.97 109.641 14.0851 106.124C14.3153 99.205 21.8548 93.8738 31.0633 93.8738C40.6172 93.8738 47.5236 98.4677 47.5236 108.166C47.5236 111.966 46.6603 114.688 44.5884 117.07C42.8618 119.055 40.0992 121.04 37.2791 122.855C35.6676 123.933 35.3798 125.067 35.3798 126.542V130.399ZM23.4087 139.189C23.4087 135.673 25.7109 133.461 29.5669 133.461C33.423 133.461 35.7252 135.73 35.7252 139.189C35.7252 142.649 33.423 144.918 29.5669 144.918C25.7109 144.918 23.4087 142.706 23.4087 139.189Z" fill="#2BDE73"/>
<path d="M272.64 35.152C277.728 35.152 282.24 38.416 282.24 44.656V125.296H263.04V87.184H250.752V97.84C250.752 114.448 239.712 123.472 224.256 123.472C208.704 123.472 197.568 114.448 197.568 97.84V62.32C197.568 45.808 208.608 36.688 224.16 36.688C239.712 36.688 250.752 45.712 250.752 62.32V70.768H263.04V44.656C263.04 38.416 267.552 35.152 272.64 35.152ZM232.32 98.704V61.36C232.32 55.408 228.384 52.24 224.16 52.336C219.84 52.432 216 55.504 216 61.36V98.704C216 104.848 219.84 107.824 224.16 107.824C228.384 107.824 232.32 104.848 232.32 98.704ZM378.24 125.296H359.04V44.656C359.04 38.416 363.552 35.152 368.64 35.152C373.728 35.152 378.24 38.416 378.24 44.656V125.296ZM345.696 121.456H308.832C296.352 121.456 294.048 118.48 294.048 106.48V53.392C294.048 41.392 296.352 38.512 308.832 38.512H339.648C345.216 38.512 347.04 42.928 347.04 46.576C347.04 50.32 345.12 54.736 339.648 54.736H315.84C314.112 54.736 313.344 55.312 313.344 57.52V102.64C313.344 104.848 314.112 105.424 315.84 105.424H345.696C351.264 105.424 352.896 109.84 352.896 113.488C352.896 117.232 351.168 121.456 345.696 121.456ZM464.64 35.152C469.728 35.152 474.24 38.416 474.24 44.656V125.296H455.04V79.024H444C438.72 79.024 435.456 75.76 435.456 70.864C435.456 66.064 438.624 62.608 444 62.608H455.04V44.656C455.04 38.416 459.552 35.152 464.64 35.152ZM423.648 73.84C440.544 80.272 447.936 93.232 446.208 119.824H427.776C429.6 105.328 427.392 96.304 419.808 91.12C415.68 103.504 408.96 112.432 399.84 118.288C394.848 121.744 388.608 120.976 386.016 117.616C383.424 114.64 383.232 109.072 387.456 106C401.856 95.728 405.792 81.616 405.792 54.832V47.344C405.792 41.2 410.304 38.032 415.392 38.032C420.288 38.032 424.8 41.488 424.8 47.344V54.736C424.8 61.648 424.416 67.984 423.648 73.84ZM537.792 74.992H565.344C570.624 74.992 572.928 78.256 572.928 82.192C572.928 86.224 570.528 89.296 565.344 89.296H490.656C485.472 89.296 483.072 86.224 483.072 82.192C483.072 78.256 485.376 74.992 490.656 74.992H518.208V69.52H498.24C489.024 69.52 487.104 65.872 487.104 58.672V43.504C487.104 37.264 491.904 34.96 496.992 34.96C500.928 34.96 505.056 36.784 506.304 40.816H549.504C550.656 36.592 554.592 34.96 558.912 34.96C563.808 34.96 568.704 37.36 568.704 43.504V69.52H537.792V74.992ZM506.784 52.24V54.736C506.784 56.656 507.456 57.616 509.76 57.616H549.12V52.24H506.784ZM499.488 94.096H556.416C566.88 94.096 568.992 97.36 568.992 106.768V125.296H499.488C489.024 125.296 486.912 121.936 486.912 112.528V106.768C486.912 97.36 489.024 94.096 499.488 94.096ZM508.416 112.624H549.888V108.784C549.888 107.632 549.408 106.768 547.488 106.768H508.416C506.496 106.768 506.112 107.632 506.112 108.784V110.512C506.112 111.856 506.496 112.624 508.416 112.624ZM613.92 99.28H594.528V91.216C594.528 83.824 595.68 79.312 601.056 76.144C605.28 73.648 608.736 71.632 610.752 69.808C613.824 67.024 614.592 64.912 614.592 61.648C614.592 57.232 611.04 54.448 606.72 54.448C602.304 54.448 598.368 56.656 597.216 60.592C595.872 65.2 591.84 67.792 586.56 67.408C582.144 67.12 578.208 64.144 578.4 58.192C578.784 46.48 591.36 37.456 606.72 37.456C622.656 37.456 634.176 45.232 634.176 61.648C634.176 68.08 632.736 72.688 629.28 76.72C626.4 80.08 621.792 83.44 617.088 86.512C614.4 88.336 613.92 90.256 613.92 92.752V99.28ZM593.952 114.16C593.952 108.208 597.792 104.464 604.224 104.464C610.656 104.464 614.496 108.304 614.496 114.16C614.496 120.016 610.656 123.856 604.224 123.856C597.792 123.856 593.952 120.112 593.952 114.16Z" fill="#2BDE73"/>
</svg>
